:SAMPLES-PER-SECOND 30
:FULLY-SPECIFIED
:DEGREES
159
root  34.89464287 36.5566494 -14.27621616 10.42878914 0.3099779189 4.780989647
lowerback  -8.634360313 1.969620109 0.946865201
upperback  -3.997046471 2.121449947 -4.869919777
thorax  0.9077832699 0.7959787846 -5.401259899
lowerneck  -11.20680046 -9.562250137 -5.586730003
upperneck  11.24090004 -13.42320061 8.264369965
head  6.185619831 -6.306089878 2.245290041
lclavicle  0 -4.497500157e-015 -2.743230041e-014
lhumerus  -47.82860184 30.09309959 61.61060333
lradius  -0.1138801873 -6.507048965e-006 28.63631821
lwrist  3.192251654e-007 -3.790274832e-007 -30.30590057
lhand  -4.447260948e-031 -37.43909836 -10.81359959
lfingers  90 7.125020027 -90
lthumb  95.0998741 -25.62695715 101.658951
rclavicle  0 -4.497500157e-015 -2.743230041e-014
rhumerus  59.51139832 -24.22190094 -52.19319916
rradius  -5.16745672e-007 2.214343908e-008 37.09500122
rwrist  0.0006954420824 -0.004670973402 -154.8289948
rhand  -1.773965891e-031 5.579090118 -7.313809872
rfingers  -90 -7.125020027 -90
rthumb  -84.68064988 -8.797626782 -58.66831746
rfemur  -12.0331316 13.82521534 12.20981312
rtibia  -1.383905768 -1.06127131 19.95676041
rfoot  0.06532280892 -20.33873558 -38.51333237
rtoes  3.971677195 19.61752419 -101.6839199
lfemur  -5.140292168 -18.08692551 -23.02182579
ltibia  6.729767323 0.2105244249 7.644106865
lfoot  0.6442825794 -22.99535179 34.09475708
ltoes  -8.634978259 -18.10912451 -116.0386206
160
root  34.8949162 36.55626192 -14.2763318 10.4452486 0.3029998541 4.793716908
lowerback  -8.626820564 1.973948002 0.9506348968
upperback  -3.998141289 2.126830101 -4.872310638
thorax  0.9061890244 0.8004620075 -5.401490211
lowerneck  -11.19830036 -9.567288399 -5.610740185
upperneck  11.28001881 -13.43192387 8.27985096
head  6.199979782 -6.310955048 2.252059937
lclavicle  0 -4.497500157e-015 -2.743230041e-014
lhumerus  -47.90990067 30.1371994 61.55690002
lradius  -0.1125794053 -6.507048965e-006 28.65069962
lwrist  3.192251654e-007 -3.790274832e-007 -30.38219833
lhand  -4.445924607e-031 -37.41659927 -10.87290001
lfingers  90 7.125020027 -90
lthumb  95.10245953 -25.6857984 101.6404976
rclavicle  0 -4.497500157e-015 -2.743230041e-014
rhumerus  59.34819794 -24.12479782 -51.80690002
rradius  -5.16745672e-007 2.214343908e-008 37.06290054
rwrist  0.0006954420824 -0.004670973402 -155.0469971
rhand  -1.773706876e-031 5.492770195 -7.206250191
rfingers  -90 -7.125020027 -90
rthumb  -84.64503357 -8.883896529 -58.74381349
rfemur  -12.05222416 13.81382465 12.19326115
rtibia  -1.390924931 -1.088342786 19.96013069
rfoot  0.06158549711 -20.3711853 -38.5056839
rtoes  3.945574259 19.62259141 -101.606182
lfemur  -5.293565273 -18.11930656 -22.97842407
ltibia  6.635841846 0.1897105277 7.857854843
lfoot  0.6585612297 -23.03308105 34.08907318
ltoes  -8.64839335 -18.10288893 -116.081787
161
root  34.8953187 36.55583539 -14.27659913 10.45747948 0.2934583426 4.784505367
lowerback  -8.617954254 1.97743094 0.9557902217
upperback  -4.000470161 2.133780003 -4.872509003
thorax  0.9067959785 0.8029094934 -5.412330151
lowerneck  -11.21679974 -9.57186985 -5.619959831
upperneck  11.33119965 -13.44550037 8.285429955
head  6.22121954 -6.316436768 2.251864672
lclavicle  0 -4.497500157e-015 -2.743230041e-014
lhumerus  -47.92910004 30.12380028 61.56529999
lradius  -0.1112054288 -6.507048965e-006 28.64429855
lwrist  3.192251654e-007 -3.790274832e-007 -30.37030029
lhand  -4.448949928e-031 -37.46749878 -10.8416996
lfingers  90 7.125020027 -90
lthumb  95.11952536 -25.65331723 101.6919692
rclavicle  0 -4.497500157e-015 -2.743230041e-014
rhumerus  59.19329834 -24.03389931 -51.42900085
rradius  -5.16745672e-007 2.214343908e-008 37.03559875
rwrist  0.0006954420824 -0.004670973402 -155.2109985
rhand  -1.773071127e-031 5.274819851 -7.382599831
rfingers  -90 -7.125020027 -90
rthumb  -84.78979798 -8.718670628 -58.97044486
rfemur  -12.05213928 13.79036713 12.19459915
rtibia  -1.38499403 -1.107781291 19.92790985
rfoot  0.07566069067 -20.40013885 -38.48538208
rtoes  3.962538615 19.61930219 -101.6567018
lfemur  -5.430744648 -18.12517548 -22.91263008
ltibia  6.545769215 0.2051040828 8.059843063
lfoot  0.6836270094 -23.14984322 34.09869385
ltoes  -8.620005514 -18.11606981 -115.990459
162
root  34.89538478 36.55548096 -14.2771368 10.47528744 0.2904456556 4.796225071
lowerback  -8.610462189 1.980820894 0.9606128335
upperback  -4.006070137 2.135915041 -4.873109818
thorax  0.8943949938 0.8044241071 -5.411570072
lowerneck  -11.19649982 -9.572520256 -5.612800121
upperneck  11.35179996 -13.44719982 8.263319969
head  6.222143173 -6.32072401 2.244541883
lclavicle  0 -4.497500157e-015 -2.743230041e-014
lhumerus  -47.96969986 30.17079926 61.49330139
lradius  -0.1097566336 -6.507048965e-006 28.60420227
lwrist  3.192251654e-007 -3.790274832e-007 -30.46050072
lhand  -4.452818444e-031 -37.53239822 -10.84309959
lfingers  90 7.125020027 -90
lthumb  95.1505054 -25.65221892 101.7615835
rclavicle  0 -4.497500157e-015 -2.743230041e-014
rhumerus  59.13339615 -23.95549965 -51.23239899
rradius  -5.16745672e-007 2.214343908e-008 36.92559814
rwrist  0.0006954420824 -0.004670973402 -155.1679993
rhand  -1.772708501e-031 5.146309853 -7.215970039
rfingers  -90 -7.125020027 -90
rthumb  -84.73383526 -8.853072359 -59.08255118
rfemur  -12.08492374 13.76196671 12.17444992
rtibia  -1.391546845 -1.111261368 19.95398903
rfoot  0.05551733077 -20.39912987 -38.49038696
rtoes  3.958235528 19.62013791 -101.6438865
lfemur  -5.375740528 -18.07239151 -22.9491272
ltibia  6.599208832 0.233072564 7.932624817
lfoot  0.690218091 -23.16269302 34.10531998
ltoes  -8.631130548 -18.11091076 -116.0262423
163
root  34.89471195 36.55443267 -14.27765493 10.47662067 0.3060164452 4.818221569
lowerback  -8.604915619 1.984450102 0.9715420604
upperback  -4.017089844 2.137470007 -4.875380039
thorax  0.8854579926 0.8055156469 -5.420179844
lowerneck  -11.18260002 -9.579139709 -5.600220203
upperneck  11.3774004 -13.45940018 8.245439529
head  6.226779938 -6.324540138 2.235709906
lclavicle  0 -4.497500157e-015 -2.743230041e-014
lhumerus  -48.00379944 30.19920158 61.43809891
lradius  -0.1079814807 -6.507048965e-006 28.58429909
lwrist  3.192251654e-007 -3.790274832e-007 -30.51980019
lhand  -0 -37.53929901 -10.82390022
lfingers  90 7.125020027 -90
lthumb  95.1494569 -25.63321165 101.7671459
rclavicle  0 -4.497500157e-015 -2.743230041e-014
rhumerus  58.9747963 -23.87539864 -50.87739944
rradius  -5.16745672e-007 2.214343908e-008 36.86270142
rwrist  0.0006954420824 -0.004670973402 -155.2720032
rhand  -1.771676022e-031 4.761189938 -7.226799965
rfingers  -90 -7.125020027 -90
rthumb  -84.83123895 -8.819081271 -59.45895034
rfemur  -12.1236124 13.76693821 12.15912437
rtibia  -1.409500003 -1.099642992 20.03115654
rfoot  0.01633137465 -20.3872261 -38.51140213
rtoes  3.924052621 19.62674302 -101.5421023
lfemur  -5.168354988 -18.05621338 -23.05398178
ltibia  6.754994392 0.2437493354 7.584490776
lfoot  0.6697460413 -23.04729652 34.11636734
ltoes  -8.671977748 -18.09189704 -116.1577106
164
root  34.89410521 36.55433354 -14.2782752 10.48680305 0.3194596767 4.810087681
lowerback  -8.604700089 1.988890052 0.988887012
upperback  -4.014110088 2.142100096 -4.889750004
thorax  0.8826928735 0.8065526485 -5.444990158
lowerneck  -11.20289993 -9.583660126 -5.566609859
upperneck  11.4076004 -13.46570015 8.202710152
head  6.234759808 -6.327680111 2.21536994
lclavicle  0 -4.497500157e-015 -2.743230041e-014
lhumerus  -48.00009918 30.22170258 61.43109894
lradius  -0.1059914008 -6.507048965e-006 28.56539917
lwrist  3.192251654e-007 -3.790274832e-007 -30.48610115
lhand  -4.452728941e-031 -37.53089905 -10.83979988
lfingers  90 7.125020027 -90
lthumb  95.14906688 -25.64901517 101.7597038
rclavicle  0 -4.497500157e-015 -2.743230041e-014
rhumerus  58.75500488 -23.78070068 -50.31719971
rradius  -5.16745672e-007 2.214343908e-008 36.81110001
rwrist  0.0006954420824 -0.004670973402 -155.5820007
rhand  -1.77153772e-031 4.707180023 -7.083409786
rfingers  -90 -7.125020027 -90
rthumb  -84.77039111 -8.939190492 -59.50033173
rfemur  -12.14299202 13.78939629 12.17725372
rtibia  -1.413044095 -1.075327039 20.04724693
rfoot  0.02002574503 -20.34621239 -38.51185989
rtoes  3.916225121 19.62824709 -101.5187994
lfemur  -5.129933357 -18.08616066 -23.05308151
ltibia  6.787151337 0.2432544827 7.513514996
lfoot  0.6727082133 -23.00876236 34.1548996
ltoes  -8.686863001 -18.08494019 -116.2056527
165
root  34.89388894 36.55446871 -14.27904414 10.4941864 0.3236174583 4.811434269
lowerback  -8.614020348 1.998819828 0.9885035753
upperback  -4.016139984 2.154839993 -4.896080017
thorax  0.8825419545 0.8075537682 -5.450049877
lowerneck  -11.2173996 -9.595450401 -5.563600063
upperneck  11.4677 -13.48589993 8.18640995
head  6.256350994 -6.335885525 2.205610752
lclavicle  0 -4.497500157e-015 -2.743230041e-014
lhumerus  -48.03089905 30.30660248 61.35969925
lradius  -0.1039156318 -6.507048965e-006 28.52639961
lwrist  3.192251654e-007 -3.790274832e-007 -30.57679939
lhand  -4.449890616e-031 -37.48329926 -10.74600029
lfingers  90 7.125020027 -90
lthumb  95.10549571 -25.55902406 101.699648
rclavicle  0 -4.497500157e-015 -2.743230041e-014
rhumerus  58.47050476 -23.66500282 -49.65620041
rradius  -5.16745672e-007 2.214343908e-008 36.81900024
rwrist  0.0006954420824 -0.004670973402 -156.0570068
rhand  -1.771248852e-031 4.592299938 -7.263929844
rfingers  -90 -7.125020027 -90
rthumb  -84.89014486 -8.776284955 -59.62662234
rfemur  -12.15669155 13.81035137 12.1825695
rtibia  -1.421755552 -1.052738786 20.0558567
rfoot  0.03573147207 -20.28282356 -38.49526215
rtoes  3.923732329 19.62680462 -101.5411487
lfemur  -5.286919117 -18.20705986 -23.00090599
ltibia  6.675573349 0.1831222326 7.77156496
lfoot  0.6702775359 -22.97158241 34.14837646
ltoes  -8.687314935 -18.08472874 -116.2071085
